# xmcd CD database file
#
# Track frame offsets:
#	150
#	34689
#	67296
#	102548
#	122082
#	156982
#	176674
#	217980
#	235398
#	291069
#
# Disc length: 4502 seconds
#
# Revision: 0
# Processed by: cddbd v1.5.2PL0 Copyright (c) Steve Scherf et al.
# Submitted via: CDex 1.50
#
DISCID=9711940a
DTITLE=Wynton Marsalis And Eric Clapton - Wynton Marsalis And Eric Clapton Play The Blues Live From Jazz At Lincoln Center
DYEAR=2011
DGENRE=Blues
TTITLE0=Ice Cream
TTITLE1=Forty-Four
TTITLE2=Joe Turner's Blues
TTITLE3=The Last Time
TTITLE4=Careless Love
TTITLE5=Kidman Blues
TTITLE6=Layla
TTITLE7=Joliet Bound
TTITLE8=Just A Closer Walk With Thee
TTITLE9=Corrine, Corrina
EXTD=YEAR: 2011
EXTT0=
EXTT1=
EXTT2=
EXTT3=
EXTT4=
EXTT5=
EXTT6=
EXTT7=
EXTT8=
EXTT9=
PLAYORDER=
